 <svg  version="1.0" xmlns="http://www.w3.org/2000/svg"  width="300.000000pt" height="295.000000pt" viewBox="0 0 300.000000 295.000000"  preserveAspectRatio="xMidYMid meet">
  <g transform="translate(-110.000000,400.000000) scale(0.09000,-0.09000)" fill="#be0a0a" stroke="none">
    <path d="M3476 4212 c-142 -38 -265 -127 -363 -261 -28 -38 -30 -37 -100 24 -420 369 -1267 32 -1422 -566 -152 -581 70 -942 731 -1190 386 -145 504 -238 567 -445 36 -120 81 99 50 244 -45 210 -190 329 -539 444 -508 168 -765 415 -768 738 -7 515 717 845 1289 588 l115 -52 15 -273 c8 -150 16 -603 17 -1006 2 -844 3 -841 -165 -853 -163 -12 -64 -72 120 -73 268 -2 302 149 280 1259 l-6 340 46 -5 c813 -78 1145 56 1146 465 2 420 -536 750 -1013 622z m556 -118 c425 -215 336 -739 -147 -869 -118 -32 -552 -44 -580 -17 -33 33 -16 500 23 611 103 297 418 420 704 275z"/>
  </g>
</svg>
