<?xml version="1.0" encoding="UTF-8"?>
<svg xmlns="http://www.w3.org/2000/svg" xmlns:xlink="http://www.w3.org/1999/xlink" width="1600pt" height="1131pt" viewBox="0 0 1600 1131" version="1.1">
<g id="surface1">
<path style=" stroke:none;fill-rule:nonzero;fill:rgb(0%,0%,0%);fill-opacity:1;" d="M 743.5 73.800781 L 737.898438 78.199219 L 738.5 84.351562 C 738.832031 87.75 739.300781 92.511719 739.550781 95 C 739.796875 97.460938 740.25 102.898438 740.550781 107 C 740.851562 111.121094 741.507812 118.101562 742.007812 122.5 C 743.511719 135.765625 743.996094 140.898438 745.019531 154.5 C 745.5625 161.699219 746.15625 168.613281 746.351562 170 C 746.542969 171.382812 747.011719 175.898438 747.398438 180.101562 L 748.101562 187.699219 L 739.800781 188.917969 C 724.5 191.160156 703.113281 197.589844 696 202.082031 C 682.898438 210.359375 680.753906 219.601562 690.101562 227.46875 C 694.066406 230.804688 704.101562 235.921875 710 237.613281 C 715.300781 239.136719 721.777344 241.480469 722.398438 242.101562 C 722.617188 242.320312 723.296875 248.601562 723.898438 256 C 724.503906 263.398438 725.203125 271.082031 725.449219 273 C 725.699219 274.933594 726.613281 284.101562 727.5 293.5 C 728.378906 302.855469 729.976562 319 731.050781 329.398438 C 732.121094 339.800781 732.886719 348.410156 732.75 348.550781 C 732.613281 348.6875 725.300781 349.757812 716.5 350.929688 C 694.199219 353.902344 680.132812 356.597656 660.601562 361.640625 C 625.601562 370.683594 604.882812 381.664062 597.476562 395.101562 L 594.5 400.5 L 594.75 695 C 594.996094 984.800781 595.03125 989.667969 597.003906 1000 C 600.894531 1020.398438 611.496094 1036.746094 628.199219 1048.109375 C 639.078125 1055.507812 646.800781 1058.246094 662 1060.085938 C 674.5 1061.597656 935.914062 1061.527344 943.898438 1060.007812 C 950.601562 1058.734375 966.957031 1051.792969 973 1047.660156 C 987.472656 1037.765625 998.792969 1020.699219 1003.761719 1001.300781 C 1005.390625 994.925781 1005.480469 976 1005.199219 699.5 C 1005.039062 537.199219 1004.640625 403.148438 1004.320312 401.5 C 1001.550781 387.210938 982.5 374.335938 949 364.121094 C 932.988281 359.242188 902 353.21875 881.5 351 C 865.300781 349.246094 866.632812 350.269531 867.421875 340.199219 C 867.796875 335.398438 868.726562 325.898438 869.5 319 C 870.269531 312.125 871.621094 298.398438 872.5 288.5 C 873.378906 278.601562 874.753906 265.324219 875.550781 259 C 876.34375 252.699219 877.113281 245.960938 877.25 244.101562 C 877.492188 240.789062 877.699219 240.640625 885 238.449219 C 889.101562 237.21875 895.445312 234.824219 899 233.167969 C 905.398438 230.179688 915 222.101562 915 219.699219 C 915 210.648438 903.800781 200.289062 889 195.652344 C 881.359375 193.261719 871.699219 190.90625 863.5 189.4375 C 861.84375 189.140625 858.550781 188.40625 856.148438 187.800781 L 851.800781 186.699219 L 852.496094 181.601562 C 853.503906 174.214844 854.957031 161.898438 856.054688 151.5 C 857.089844 141.652344 858.105469 133 860.453125 114 C 861.308594 107.101562 862.449219 97.46875 863 92.5 C 863.554688 87.5 864.246094 82.371094 864.550781 80.949219 C 865.007812 78.820312 864.25 77.621094 859.949219 73.648438 L 854.800781 68.898438 L 801.949219 69.148438 L 749.101562 69.398438 Z M 718.363281 638.300781 C 722.960938 642.945312 724.328125 647.800781 724.421875 659.800781 C 724.464844 665.398438 724.859375 670 725.300781 670 C 725.738281 670 731.449219 665.507812 737.949219 660.050781 C 744.449219 654.59375 751.628906 649.175781 753.851562 648.050781 C 756.050781 646.9375 758.175781 645.566406 758.5 645.050781 C 758.828125 644.527344 761.398438 642.9375 764.199219 641.519531 C 770 638.585938 778.972656 637.875 781.699219 640.132812 C 788.144531 645.464844 787.359375 665.199219 779.972656 683.601562 C 778.246094 687.898438 776.304688 692.867188 775.714844 694.5 C 774.648438 697.445312 769.738281 707.699219 766.613281 713.5 C 765.699219 715.199219 765 716.890625 765 717.398438 C 765 719.035156 753.113281 737.898438 748.554688 743.5 C 736.019531 758.898438 719.925781 768.675781 713.101562 765.039062 C 710.085938 763.433594 709.398438 757.898438 711.640625 753.300781 C 714.078125 748.300781 717.023438 747.894531 721.601562 751.929688 C 727.445312 757.082031 730.183594 756.398438 738.199219 747.800781 C 743.894531 741.6875 746.289062 737.898438 752.933594 724.5 C 762.507812 705.199219 771.246094 681.992188 773.984375 668.601562 C 778.300781 647.5 775.425781 641.164062 763.800781 646.15625 C 758.398438 648.476562 746.1875 657.078125 744.71875 659.601562 C 744.25 660.398438 743.449219 661 742.851562 661 C 742.277344 661 738.800781 663.625 735.199219 666.773438 C 728.5 672.636719 721 682.84375 721 686.101562 C 721 688.882812 709.078125 724.800781 706.363281 730.199219 C 705.054688 732.800781 704 735.726562 704 736.75 C 704 737.75 703.585938 739.035156 703.101562 739.550781 C 702.613281 740.066406 701.195312 743.449219 700 746.949219 C 698.804688 750.449219 697.203125 754.566406 696.5 755.949219 C 695.773438 757.375 694.890625 760 694.5 761.898438 C 694.117188 763.765625 692.335938 767.601562 690.550781 770.398438 C 688.765625 773.203125 685.734375 778.699219 683.828125 782.601562 C 679.035156 792.398438 668.570312 806.183594 663.601562 809.25 C 653.5 815.476562 644.597656 816.410156 640.191406 811.699219 C 636.0625 807.285156 634.820312 802.5 636.046875 795.699219 C 637.480469 787.722656 638.746094 784.800781 645.589844 773.699219 C 653.910156 760.203125 669.191406 739.300781 687.980469 715.699219 C 709.800781 688.300781 709.800781 688.300781 710.972656 682.101562 C 712.320312 675 712.359375 644.484375 711.027344 642 C 706.046875 632.703125 677.035156 659.800781 660.277344 689.398438 C 656.371094 696.300781 655.710938 703.257812 658.800781 704.925781 C 662.160156 706.742188 667.453125 704.398438 672.40625 698.898438 C 674.929688 696.101562 677 693.394531 677 692.898438 C 677 692.421875 677.699219 692 678.5 692 C 680.546875 692 680.40625 692.398438 676.523438 697.699219 C 670.882812 705.398438 665.523438 709.261719 660.300781 709.390625 C 656.601562 709.480469 655.371094 709.003906 653.398438 706.699219 C 651.601562 704.601562 651.164062 703.226562 651.65625 701.199219 C 654.808594 688.253906 674.699219 660.261719 689 648.644531 C 697.398438 641.824219 709.050781 635 712.300781 635 C 714.167969 635 716.1875 636.101562 718.363281 638.300781 Z M 831.871094 694.601562 C 835.378906 701.898438 835.65625 703.570312 833.5 704.394531 C 827.5 706.691406 820.09375 694.859375 824.492188 690 C 825.484375 688.898438 826.839844 688 827.5 688 C 828.15625 688 830.140625 691 831.871094 694.601562 Z M 823.425781 724.898438 C 823.738281 725.390625 822.457031 728.898438 820.617188 732.601562 C 817.03125 739.800781 813 751.183594 813 754.101562 C 813 757.808594 816.101562 756.609375 825 749.464844 C 830.101562 745.371094 835.925781 741.007812 837.898438 739.800781 C 839.871094 738.59375 843.398438 735.898438 845.699219 733.839844 C 850.101562 729.898438 856.570312 726.625 858.101562 727.566406 C 859.730469 728.566406 859 729.921875 856 731.460938 C 854.300781 732.332031 852.328125 734.039062 851.449219 735.398438 C 850.039062 737.582031 850.054688 738.101562 851.601562 741.101562 C 852.539062 742.925781 853.34375 746.101562 853.398438 748.199219 C 853.453125 750.300781 853.945312 752 854.5 752 C 855.050781 752 859 749.082031 863.300781 745.5 C 872.5 737.832031 877.652344 735 882.398438 735 C 884.699219 735 886.824219 734.140625 888.601562 732.492188 C 892.238281 729.109375 895.546875 729.300781 897.476562 733 C 899.304688 736.5 899.460938 740.324219 897.890625 743.199219 C 897.183594 744.5 897.148438 745.550781 897.800781 746.199219 C 899.414062 747.816406 905 745.355469 911 740.382812 C 917.398438 735.078125 927.558594 729.636719 929.601562 730.417969 C 931.570312 731.167969 931.351562 735.101562 929.003906 741.199219 C 927.886719 744.101562 927.222656 746.597656 927.5 746.851562 C 927.773438 747.09375 931.101562 744.363281 934.800781 740.863281 C 941.800781 734.234375 948.71875 730.246094 951.398438 731.296875 C 953.765625 732.21875 953.273438 736.101562 949.96875 742.601562 C 944.585938 753.199219 946.125 754.835938 955.5 748.460938 C 963.800781 742.820312 966.40625 741.691406 963.515625 745 C 958.617188 750.601562 944.257812 760 940.601562 760 C 937.242188 760 937.648438 755.300781 941.832031 745.699219 C 946.300781 735.449219 943.5 736.558594 928.601562 750.933594 C 915.300781 763.761719 911.703125 765.886719 914.597656 759.199219 C 919.703125 747.398438 922 741.542969 922 740.300781 C 922 737.550781 916.800781 739.019531 911.199219 743.34375 C 902.699219 749.914062 898.867188 752 895.300781 752 C 892.757812 752 891.453125 752.800781 888.953125 755.898438 C 884.835938 761 877.78125 766 874.699219 766 C 873.390625 766 871.050781 765.023438 869.550781 763.851562 C 867.015625 761.867188 866.851562 761.300781 867.449219 756.601562 C 867.808594 753.800781 868.800781 750.441406 869.648438 749.148438 C 870.507812 747.851562 870.933594 746.152344 870.601562 745.351562 C 870.085938 744.105469 869.601562 744.109375 867.199219 745.367188 C 863 747.574219 852.15625 757.824219 851.40625 760.300781 C 850.464844 763.398438 844.660156 772.035156 841.601562 774.886719 C 838.199219 778.054688 829.621094 779.050781 828.605469 776.398438 C 827.59375 773.765625 831.898438 768.082031 838.398438 763.472656 C 841.5 761.273438 844.273438 758.472656 844.613281 757.199219 C 845.308594 754.601562 842.191406 743 840.800781 743 C 837.996094 743 829.300781 748.933594 821 756.507812 C 811.300781 765.355469 808.703125 767 804.398438 767 C 801.25 767 801.328125 765.5 805.042969 755 C 809.324219 742.898438 809.417969 742.367188 807.398438 741.605469 C 805.757812 740.984375 797.765625 745 796.460938 747.101562 C 794.902344 749.609375 787.800781 753 784.101562 753 C 780.589844 753 779.695312 753.5 776.796875 757.101562 C 772.199219 762.800781 764.648438 768.171875 762.300781 767.410156 C 755.226562 765.121094 753.605469 762.101562 755.527344 754.800781 C 757.035156 749.085938 759.101562 746.097656 766.101562 739.488281 C 773.898438 732.128906 780.527344 728.429688 783.5 729.78125 C 786.1875 731.003906 787.398438 737.398438 786.0625 743.300781 C 785.402344 746.199219 785.53125 747.226562 786.601562 747.636719 C 788.199219 748.25 794.761719 746.257812 795.605469 744.898438 C 796.199219 743.9375 813 730.167969 818.300781 726.296875 C 821.699219 723.8125 822.574219 723.574219 823.425781 724.898438 "/>
<path style=" stroke:none;fill-rule:nonzero;fill:rgb(0%,0%,0%);fill-opacity:1;" d="M 700.101562 705.398438 C 697.707031 708.175781 693.28125 713.101562 690.398438 716.199219 C 687.519531 719.300781 684.300781 723.132812 683.351562 724.601562 C 682.378906 726.101562 680.816406 728.234375 679.832031 729.398438 C 673.355469 737.101562 671 740.355469 671 741.601562 C 671 742.363281 668.695312 745.851562 665.949219 749.25 C 663.203125 752.648438 659.121094 758.234375 657 761.5 C 654.855469 764.800781 652.269531 768.625 651.25 770 C 650.234375 771.371094 647.234375 777.101562 644.601562 782.699219 C 640.695312 791 639.773438 793.980469 639.664062 798.699219 C 639.503906 805.398438 642.253906 810.515625 646.601562 811.601562 C 650.101562 812.476562 657.78125 809.265625 659.769531 806.101562 C 660.675781 804.65625 663.527344 800.699219 666.1875 797.199219 C 672.046875 789.496094 681.246094 770.898438 688.058594 753 C 697.003906 729.5 706.1875 701.800781 705.300781 701.011719 C 704.859375 700.621094 702.515625 702.601562 700.101562 705.398438 "/>
<path style=" stroke:none;fill-rule:nonzero;fill:rgb(0%,0%,0%);fill-opacity:1;" d="M 880.355469 741.800781 C 876.609375 747.398438 874.605469 753.230469 875.472656 756 C 875.9375 757.484375 877 758 879.601562 758 C 885.898438 758 892.59375 748.375 888.601562 745.0625 C 887.828125 744.421875 886.90625 742.351562 886.550781 740.449219 C 886.191406 738.550781 885.359375 737.023438 884.699219 737.050781 C 884.035156 737.078125 882.09375 739.199219 880.355469 741.800781 "/>
<path style=" stroke:none;fill-rule:nonzero;fill:rgb(0%,0%,0%);fill-opacity:1;" d="M 768.757812 741.800781 C 765.324219 745.601562 762.480469 753.097656 763.140625 756.601562 C 763.40625 758 764.5 758.578125 767.300781 758.800781 C 770.5 759.054688 771.570312 758.59375 774.089844 755.898438 C 778.203125 751.5 778.75 748.699219 776.136719 745.398438 C 774.949219 743.898438 774 741.632812 774 740.300781 C 774 737.039062 772.734375 737.398438 768.757812 741.800781 "/>
<path style=" stroke:none;fill-rule:nonzero;fill:rgb(0%,0%,0%);fill-opacity:1;" d="M 838.101562 766.589844 C 836.199219 768.1875 835 770.128906 835 771.601562 C 835 775.191406 839.128906 774.800781 842.410156 770.898438 C 847.546875 764.800781 844.199219 761.453125 838.101562 766.589844 "/>
</g>
</svg>
